<?xml version="1.0" encoding="UTF-8" standalone="no"?>
<!DOCTYPE svg PUBLIC "-//W3C//DTD SVG 1.1//EN" "http://www.w3.org/Graphics/SVG/1.1/DTD/svg11.dtd">
<svg version="1.1" xmlns="http://www.w3.org/2000/svg" xmlns:xlink="http://www.w3.org/1999/xlink" preserveAspectRatio="xMidYMid meet" viewBox="0 0 640 640" width="640" height="640"><defs><path d="M240.25 124.23C248.97 144.1 235.36 169.31 209.88 180.5C184.4 191.69 156.62 184.64 147.9 164.77C139.18 144.9 152.79 119.69 178.27 108.5C203.75 97.31 231.52 104.36 240.25 124.23Z" id="a95RLllcf"></path><path d="M364.98 120.17C375.66 158.87 352.02 199.21 312.22 210.19C272.43 221.17 231.44 198.67 220.77 159.97C210.09 121.27 233.73 80.93 273.52 69.95C313.32 58.97 354.3 81.47 364.98 120.17Z" id="a1qgX0nv9F"></path><path d="M430.49 111.39C441.18 135.75 429.17 164.61 403.69 175.8C378.21 186.98 348.83 176.29 338.14 151.93C327.44 127.57 339.45 98.71 364.94 87.53C390.42 76.34 419.79 87.03 430.49 111.39Z" id="aw8X5ny1O"></path><path d="M494.87 166.13C509.16 198.68 489.49 238.84 450.98 255.75C412.46 272.66 369.59 259.96 355.3 227.4C341 194.85 360.67 154.69 399.19 137.78C437.7 120.87 480.58 133.57 494.87 166.13Z" id="a4Xc5vsRnQ"></path><path d="M514.11 245.69C531.14 284.49 514.28 329.47 476.48 346.06C438.68 362.66 394.16 344.63 377.13 305.83C360.09 267.03 376.95 222.06 414.75 205.46C452.56 188.87 497.08 206.9 514.11 245.69Z" id="a1xM9ardj8"></path><path d="M519.2 348.97C526.66 384.66 506.55 419.12 474.31 425.86C442.07 432.6 409.84 409.1 402.37 373.4C394.91 337.7 415.02 303.25 447.26 296.51C479.49 289.76 511.73 313.27 519.2 348.97Z" id="e5G3BSaK1"></path><path d="M457.55 361.69C488.94 372.14 503.26 414.19 489.49 455.52C475.73 496.84 439.06 521.91 407.67 511.45C376.27 500.99 361.95 458.95 375.72 417.62C389.48 376.29 426.15 351.23 457.55 361.69Z" id="d6UplFGdd"></path><path d="M417.11 455.2C434.89 495.69 421.93 540.58 388.19 555.39C354.45 570.2 312.64 549.36 294.86 508.87C277.09 468.39 290.05 423.5 323.79 408.69C357.52 393.88 399.34 414.72 417.11 455.2Z" id="g4p2SYmpCn"></path><path d="M290.77 416.56C324.78 440.81 335.99 483.52 315.78 511.88C295.57 540.23 251.54 543.56 217.52 519.31C183.5 495.06 172.29 452.35 192.5 424C212.72 395.64 256.75 392.31 290.77 416.56Z" id="biHK349hn"></path><path d="M245.19 384.04C259.85 417.44 246.52 455.62 215.45 469.27C184.37 482.91 147.24 466.88 132.58 433.48C117.92 400.09 131.24 361.9 162.32 348.26C193.4 334.62 230.53 350.65 245.19 384.04Z" id="acUmuojYJ"></path><path d="M202.44 300.31C217.1 333.7 204.52 371.56 174.36 384.8C144.2 398.04 107.82 381.68 93.16 348.29C78.5 314.89 91.08 277.03 121.23 263.79C151.39 250.55 187.78 266.92 202.44 300.31Z" id="o1f8FxrbDM"></path><path d="M233.83 209.94C253.43 254.57 240.16 303.61 204.24 319.38C168.31 335.15 123.24 311.73 103.64 267.1C84.05 222.48 97.31 173.44 133.24 157.67C169.17 141.89 214.24 165.32 233.83 209.94Z" id="b4NO3VKMUO"></path><path d="M422.53 241.07C454.69 314.33 423.96 398.76 353.95 429.5C283.95 460.23 201 425.71 168.83 352.45C136.67 279.19 167.39 194.76 237.4 164.02C307.41 133.28 390.36 167.81 422.53 241.07Z" id="bh45VN24m"></path><path d="M343.94 124.88L344.14 125.38L344.36 126.07L344.59 126.94L344.84 127.98L345.1 129.17L345.3 130.14L345.44 130.44L345.78 131.3L346.12 132.32L346.47 133.5L346.82 134.83L347.17 136.29L347.52 137.87L347.86 139.56L348.19 141.35L348.51 143.24L348.82 145.19L349.1 147.22L349.36 149.25L349.59 151.22L349.77 153.12L349.83 153.81L350.43 155.56L351.02 157.45L351.25 158.3L351.92 158.47L352.77 158.72L353.91 157.92L355.27 157.05L356.79 156.16L358.44 155.26L360.22 154.38L362.02 153.54L363.75 152.81L365.23 152.24L365.29 152.18L366.14 151.57L367.21 150.93L368.49 150.25L369.94 149.56L371.56 148.87L373.32 148.19L375.19 147.54L377.08 146.94L378.89 146.43L380.6 146.02L382.18 145.69L383.6 145.47L384.85 145.35L385.89 145.33L386.66 145.41L387.82 145.19L389.06 145.02L390.1 144.96L390.91 145.02L391.47 145.2L391.76 145.5L391.74 145.92L391.44 146.42L390.86 147L390.04 147.64L389 148.33L387.75 149.05L386.31 149.8L384.72 150.55L383 151.29L381.15 152.02L379.29 152.68L377.49 153.26L375.8 153.74L374.39 154.08L373.82 154.55L372.54 155.52L371.09 156.53L369.51 157.55L367.81 158.57L366.09 159.54L364.42 160.4L362.83 161.16L362.82 161.16L362.36 161.75L361.23 163.1L359.97 164.5L358.6 165.93L357.18 167.31L355.79 168.58L354.46 169.73L353.19 170.73L352.7 171.08L352.31 171.54L351.72 173.04L351.02 174.65L350.84 175.05L350.8 175.15L350.54 175.67L350.22 176.35L349.31 178.12L348.35 179.85L348.1 180.26L348.01 181.87L347.84 183.74L347.6 185.71L347.3 187.66L347.19 188.24L347.19 188.24L348.07 189.76L348.96 191.42L349.83 193.2L350.65 195L351.38 196.74L351.93 198.2L352.38 198.51L353.96 199.7L355.43 200.88L356.76 202.03L357.73 202.94L359.1 203.59L360.86 204.51L362.59 205.47L363.2 205.84L363.76 206.03L364.69 206.49L365.77 207.13L366.97 207.94L368.26 208.9L369.63 210L371.06 211.23L372.52 212.57L373.85 213.88L373.94 213.95L374.84 214.82L375.53 215.6L375.67 215.81L376.41 216.63L377.43 217.87L378.3 219.02L379 220.06L379.51 220.97L379.81 221.73L379.9 222.31L379.75 222.7L379.37 222.87L378.78 222.82L378.01 222.56L377.07 222.1L375.99 221.46L374.8 220.65L373.5 219.69L372.13 218.59L370.71 217.36L369.25 216.02L368.3 215.09L367.82 214.85L366.16 213.96L364.45 212.96L362.77 211.91L361.2 210.86L359.78 209.83L358.51 208.84L357.81 208.24L356.88 207.72L355.26 206.75L354.04 205.95L353.72 205.9L352.73 205.59L351.56 205.13L350.25 204.53L348.82 203.78L347.29 202.91L345.69 201.93L344.04 200.83L343.19 200.23L341.53 200.03L339.67 199.74L337.73 199.37L335.79 198.95L333.97 198.48L332.28 197.98L331.28 197.65L330.15 197.77L328.4 197.89L326.52 197.96L324.54 197.97L322.55 197.91L320.68 197.8L319.72 197.71L319.04 197.93L317.48 198.35L315.76 198.74L313.92 199.09L311.96 199.4L309.99 199.65L308.12 199.82L306.36 199.93L305.34 199.95L305.17 200.02L303.67 200.61L302.01 201.18L300.21 201.74L298.3 202.26L296.37 202.72L294.53 203.11L292.79 203.4L291.19 203.61L289.99 203.72L289.7 203.88L288.26 204.62L286.67 205.36L284.94 206.09L283.09 206.81L281.22 207.47L279.43 208.03L277.73 208.5L276.16 208.88L274.74 209.15L274.55 209.17L273.93 209.6L272.57 210.46L271.04 211.35L269.38 212.23L267.61 213.11L265.81 213.93L264.07 214.66L263.22 214.98L262.53 215.71L261.28 216.95L259.9 218.23L258.41 219.52L256.87 220.78L256.21 221.28L255.58 222.72L254.91 224.19L254.52 224.98L254.46 226.23L254.32 228.21L254.16 230.11L253.98 231.92L253.79 233.64L253.58 235.24L253.35 236.73L253.33 236.87L253.35 237L253.5 238.07L253.58 238.99L253.6 239.74L253.54 240.31L253.5 240.43L253.67 241.66L253.87 243.21L254.05 244.7L254.21 246.12L254.36 247.46L254.49 248.73L254.6 249.91L254.69 251.02L254.76 252.03L254.81 252.96L254.84 253.79L254.84 254.53L254.83 255.16L254.8 255.7L254.74 256.12L254.66 256.44L254.55 256.64L254.43 256.72L254.28 256.69L254.11 256.54L253.93 256.27L253.72 255.89L253.5 255.4L253.27 254.81L253.02 254.12L252.75 253.33L252.47 252.45L252.18 251.47L251.88 250.4L251.57 249.25L251.24 248.02L250.91 246.71L250.57 245.33L250.22 243.87L249.86 242.35L249.5 240.75L249.13 239.1L248.76 237.39L248.39 235.62L248.01 233.8L247.63 231.93L247.35 230.55L246.92 229.45L246.24 227.67L245.69 226.15L245.3 225.65L244.27 224.26L243.21 222.78L242.13 221.21L241.02 219.56L240.98 219.5L240.05 218.75L238.58 217.52L237.08 216.23L235.55 214.87L234.03 213.5L232.59 212.14L231.21 210.82L229.92 209.53L229.76 209.38L228.28 208.46L226.61 207.39L224.9 206.27L223.52 205.34L222.32 204.77L220.5 203.89L218.72 203L216.99 202.12L215.3 201.25L213.67 200.38L212.1 199.52L210.6 198.68L209.16 197.85L207.79 197.03L206.5 196.24L205.28 195.47L204.54 194.99L204.09 194.84L202.46 194.28L200.89 193.72L199.4 193.17L198.23 192.72L198.05 192.7L196.03 192.43L194.12 192.13L192.32 191.79L190.67 191.43L189.17 191.05L187.85 190.66L186.86 190.3L186.71 190.31L184.7 190.34L182.68 190.26L181.41 190.16L179.75 190.43L177.64 190.72L177.37 190.74L177.32 190.77L175.56 191.43L173.65 192.05L171.7 192.58L169.86 192.98L168.17 193.25L166.67 193.39L165.4 193.4L164.4 193.28L163.71 193.01L163.38 192.61L163.44 192.1L163.88 191.5L164.65 190.85L165.72 190.17L167.05 189.47L168.62 188.78L170.38 188.11L172.3 187.5L174.24 186.97L176.08 186.57L176.69 186.47L177.67 186.2L179.16 185.93L180.86 185.73L182.73 185.61L184.75 185.59L186.76 185.66L188.64 185.82L189.57 185.95L191.03 185.93L192.74 186.01L194.62 186.21L195.33 186.32L195.53 186.34L196.79 186.47L198.13 186.65L199.55 186.86L201.04 187.1L202.61 187.38L204.24 187.69L205.94 188.03L207.69 188.4L209.49 188.8L211.33 189.24L213.22 189.7L215.15 190.19L217.11 190.71L219.06 191.25L220.97 191.8L221.27 191.89L221.89 191.58L223.36 190.89L224.93 190.18L226.6 189.46L228.37 188.73L230.21 188L232.12 187.27L234.04 186.57L235.66 186.01L236.07 185.64L237.44 184.45L238.9 183.22L240.44 181.96L242.04 180.69L243.66 179.44L243.9 179.26L244.94 178.08L246.32 176.56L246.88 175.96L247.15 175.35L247.98 173.55L248.81 171.83L249.62 170.2L250.41 168.66L250.88 167.8L250.99 166.12L251.15 164.31L251.32 162.59L251.51 160.98L251.53 160.9L250.86 159.58L250.27 158.35L249.77 157.22L249.43 156.39L248.2 155.18L246.84 153.85L245.53 152.54L244.25 151.26L243.02 150.01L241.83 148.8L240.7 147.63L239.61 146.5L238.58 145.41L237.61 144.37L236.69 143.38L235.83 142.43L235.04 141.54L234.31 140.71L233.65 139.93L233.06 139.22L232.55 138.56L232.1 137.98L231.74 137.46L231.45 137.01L231.24 136.63L231.12 136.33L231.08 136.11L231.13 135.96L231.27 135.9L231.5 135.93L231.81 136.03L232.2 136.21L232.66 136.48L233.2 136.81L233.81 137.22L234.5 137.7L235.25 138.24L236.06 138.86L236.94 139.53L237.87 140.27L238.86 141.07L239.91 141.93L241.01 142.84L242.15 143.8L243.35 144.82L244.58 145.88L245.86 147L247.18 148.15L248.53 149.35L249.33 150.07L250.72 150.9L252.19 151.82L253.72 152.8L255.31 153.86L256.94 154.98L258.61 156.16L260.27 157.37L261.85 158.56L263.37 159.72L264.79 160.86L265.83 161.71L266.51 161.95L268.22 162.59L270 163.29L271.83 164.04L273.71 164.84L275.59 165.67L277.39 166.49L279.11 167.31L280.75 168.12L281.18 168.34L282.57 168.45L284.61 168.65L286.58 168.86L288.48 169.1L290.28 169.35L291.99 169.62L293.21 169.83L293.41 169.8L295.43 169.51L297.4 169.25L299.3 169.04L301.11 168.86L301.32 168.84L302.94 168.25L304.81 167.6L306.75 166.96L308.7 166.34L310.6 165.76L312.44 165.24L314.2 164.76L315.87 164.34L317.44 163.97L318.17 163.81L318.52 163.63L320.3 162.75L322.1 161.93L323.84 161.21L324.59 160.93L325.22 160.52L326.91 159.49L328.67 158.44L330.44 157.41L332.17 156.45L333.85 155.54L334.05 155.43L335.02 154.49L336.09 153.56L336.87 152.94L337.3 152.38L338.5 150.89L339.66 149.49L340.78 148.17L341.85 146.96L342.38 146.38L342.86 144.82L343.39 143.3L343.77 142.36L343.73 141.95L343.57 140.14L343.46 138.41L343.37 136.8L343.33 135.3L343.32 133.93L343.34 132.7L343.4 131.62L343.5 130.7L343.5 130.69L343.42 129.4L343.36 128.18L343.32 127.11L343.32 126.21L343.35 125.49L343.4 124.95L343.49 124.61L343.61 124.48L343.77 124.58L343.94 124.88ZM335.36 214.79L336.58 215.37L337.68 216.14L338.63 217.09L339.4 218.19L339.98 219.41L340.35 220.74L340.48 222.16L340.35 223.57L339.98 224.9L339.4 226.12L338.63 227.22L337.68 228.17L336.58 228.95L335.36 229.53L334.03 229.89L332.61 230.02L331.2 229.89L329.87 229.53L328.65 228.95L327.55 228.17L326.6 227.22L325.82 226.12L325.24 224.9L324.88 223.57L324.75 222.16L324.88 220.74L325.24 219.41L325.82 218.19L326.6 217.09L327.55 216.14L328.65 215.37L329.87 214.79L331.2 214.42L332.61 214.29L334.03 214.42L335.36 214.79ZM188.17 194.65L189.4 195.08L190.56 195.66L191.62 196.38L192.58 197.22L193.43 198.18L194.15 199.25L194.73 200.4L195.15 201.64L195.42 202.94L195.51 204.29L195.42 205.65L195.15 206.95L194.73 208.18L194.15 209.34L193.43 210.4L192.58 211.36L191.62 212.21L190.56 212.93L189.4 213.51L188.17 213.94L186.87 214.2L185.51 214.29L184.16 214.2L182.85 213.94L181.62 213.51L180.47 212.93L179.4 212.21L178.44 211.36L177.6 210.4L176.88 209.34L176.3 208.18L175.87 206.95L175.6 205.65L175.51 204.29L175.6 202.94L175.87 201.64L176.3 200.4L176.88 199.25L177.6 198.18L178.44 197.22L179.4 196.38L180.47 195.66L181.62 195.08L182.85 194.65L184.16 194.39L185.51 194.29L186.87 194.39L188.17 194.65ZM273.21 205.88L273.18 205.87L273.16 205.89L273.21 205.88ZM366.83 168.13L367.9 168.8L368.79 169.69L369.46 170.75L369.89 171.96L370.04 173.27L369.89 174.58L369.46 175.79L368.79 176.85L367.9 177.74L366.83 178.42L365.63 178.85L364.32 179L363.01 178.85L361.8 178.42L360.74 177.74L359.85 176.85L359.17 175.79L358.74 174.58L358.59 173.27L358.74 171.96L359.17 170.75L359.85 169.69L360.74 168.8L361.8 168.13L363.01 167.7L364.32 167.54L365.63 167.7L366.83 168.13ZM260.44 103.77L261.5 104.44L262.39 105.33L263.07 106.39L263.5 107.6L263.65 108.91L263.5 110.22L263.07 111.43L262.39 112.49L261.5 113.38L260.44 114.06L259.23 114.49L257.92 114.64L256.61 114.49L255.4 114.06L254.34 113.38L253.45 112.49L252.78 111.43L252.35 110.22L252.2 108.91L252.35 107.6L252.78 106.39L253.45 105.33L254.34 104.44L255.4 103.77L256.61 103.34L257.92 103.19L259.23 103.34L260.44 103.77Z" id="a518cYpyA"></path><path d="M343.23 221.98C343.23 226.94 339.2 230.98 334.23 230.98C329.26 230.98 325.23 226.94 325.23 221.98C325.23 217.01 329.26 212.98 334.23 212.98C339.2 212.98 343.23 217.01 343.23 221.98Z" id="f40Ua73R60"></path><path d="M358.69 171.42C359.54 168.22 362.84 166.32 366.04 167.18C369.23 168.04 371.14 171.33 370.28 174.53C369.42 177.73 366.13 179.63 362.93 178.77C359.73 177.91 357.83 174.62 358.69 171.42Z" id="cCc2Klks4"></path><path d="M252.35 106.76C253.21 103.56 256.5 101.66 259.7 102.51C262.9 103.37 264.8 106.66 263.94 109.86C263.09 113.06 259.8 114.96 256.6 114.1C253.4 113.25 251.5 109.95 252.35 106.76Z" id="a5HVHWfe6y"></path><path d="M195.07 204.14C195.07 209.94 190.37 214.64 184.57 214.64C178.78 214.64 174.07 209.94 174.07 204.14C174.07 198.35 178.78 193.64 184.57 193.64C190.37 193.64 195.07 198.35 195.07 204.14Z" id="asNqC6pTA"></path><path d="M299.15 343.39C299.15 362.71 283.47 378.39 264.15 378.39C244.83 378.39 229.15 362.71 229.15 343.39C229.15 324.08 244.83 308.39 264.15 308.39C283.47 308.39 299.15 324.08 299.15 343.39Z" id="f39xNw5HzD"></path><path d="M285.15 332.89C285.15 338.69 280.45 343.39 274.65 343.39C268.86 343.39 264.15 338.69 264.15 332.89C264.15 327.1 268.86 322.39 274.65 322.39C280.45 322.39 285.15 327.1 285.15 332.89Z" id="g6hpkoYwVu"></path><path d="M432.61 326.18C432.61 345.5 416.92 361.18 397.61 361.18C378.29 361.18 362.61 345.5 362.61 326.18C362.61 306.87 378.29 291.18 397.61 291.18C416.92 291.18 432.61 306.87 432.61 326.18Z" id="duMdaIWFl"></path><path d="M415.15 313.8C415.15 319.59 410.45 324.3 404.65 324.3C398.86 324.3 394.15 319.59 394.15 313.8C394.15 308 398.86 303.3 404.65 303.3C410.45 303.3 415.15 308 415.15 313.8Z" id="e14N2vIYhQ"></path><path d="M317.59 442.1C314.01 433.4 323.67 421.17 339.16 414.8C354.65 408.43 370.11 410.33 373.69 419.03C377.27 427.74 367.61 439.96 357.58 459.6C336.63 452.7 321.17 450.81 317.59 442.1Z" id="k7XaQgAYjP"></path><path d="M365.94 449.28C365.94 463.7 353.59 475.4 338.36 475.4C323.14 475.4 310.78 463.7 310.78 449.28C310.78 434.87 323.14 423.17 338.36 423.17C353.59 423.17 365.94 434.87 365.94 449.28Z" id="afszpCZAq"></path><path d="M327.31 449.99L357.88 459.44L347.89 491.73L317.32 482.28L327.31 449.99Z" id="bpUhnEvdG"></path><path d="M348.79 470.28L366.34 443.51L394.61 462.04L377.06 488.81L348.79 470.28Z" id="b2HUUwF0Af"></path><path d="M290.4 467.65L304.41 438.88L334.8 453.67L320.79 482.44L290.4 467.65Z" id="bk6VkBj1L"></path><path d="M308.61 452.45L315.37 442.54L325.84 449.69L319.07 459.6L308.61 452.45Z" id="d1vuz9t1k"></path><path d="M307.43 450.76L315.14 441.57L324.85 449.71L317.14 458.91L307.43 450.76Z" id="b8l5WXu0v"></path><path d="M316.84 458.4L321.67 447.42L333.27 452.51L328.45 463.5L316.84 458.4Z" id="j2oHiYgosj"></path><path d="M304.39 445.56L313.58 437.85L321.73 447.57L312.53 455.28L304.39 445.56Z" id="a1HMZZISZR"></path><path d="M303.45 435.7L315.07 432.71L318.22 444.99L306.6 447.97L303.45 435.7Z" id="i1ebZUJZQr"></path><path d="M307.63 425.4L319.14 428.8L315.54 440.96L304.03 437.55L307.63 425.4Z" id="a1CpwujUhV"></path><path d="M310.17 421.92L320.74 427.61L314.72 438.77L304.16 433.08L310.17 421.92Z" id="aaeXX6FjL"></path><path d="M308.78 423.09L320.09 427.11L315.84 439.06L304.53 435.03L308.78 423.09Z" id="c22vQFjmD3"></path><path d="M305.3 432.27L317.26 433.21L316.27 445.85L304.3 444.9L305.3 432.27Z" id="a12EOe59lq"></path><path d="M304.86 434.36L316.86 434.42L316.81 447.09L304.81 447.04L304.86 434.36Z" id="b4LDT4FUT"></path><path d="M304.58 436.7L316.52 435.42L317.86 448.02L305.93 449.3L304.58 436.7Z" id="e1UnLEVH7i"></path><path d="M304.16 441.52L315.07 436.52L320.35 448.04L309.44 453.04L304.16 441.52Z" id="buUE5FjCF"></path><path d="M305.53 450.6L316.44 445.6L321.73 457.12L310.82 462.12L305.53 450.6Z" id="b2YwJsCvk"></path></defs><g><g><g><use xlink:href="#a95RLllcf" opacity="1" fill="#e73857" fill-opacity="1"></use></g><g><use xlink:href="#a1qgX0nv9F" opacity="1" fill="#e73857" fill-opacity="1"></use></g><g><use xlink:href="#aw8X5ny1O" opacity="1" fill="#e73857" fill-opacity="1"></use></g><g><use xlink:href="#a4Xc5vsRnQ" opacity="1" fill="#e73857" fill-opacity="1"></use></g><g><use xlink:href="#a1xM9ardj8" opacity="1" fill="#e73857" fill-opacity="1"></use></g><g><use xlink:href="#e5G3BSaK1" opacity="1" fill="#e73857" fill-opacity="1"></use></g><g><use xlink:href="#d6UplFGdd" opacity="1" fill="#e73857" fill-opacity="1"></use></g><g><use xlink:href="#g4p2SYmpCn" opacity="1" fill="#e73857" fill-opacity="1"></use></g><g><use xlink:href="#biHK349hn" opacity="1" fill="#e73857" fill-opacity="1"></use></g><g><use xlink:href="#acUmuojYJ" opacity="1" fill="#e73857" fill-opacity="1"></use></g><g><use xlink:href="#o1f8FxrbDM" opacity="1" fill="#e73857" fill-opacity="1"></use></g><g><use xlink:href="#b4NO3VKMUO" opacity="1" fill="#e73857" fill-opacity="1"></use></g><g><use xlink:href="#bh45VN24m" opacity="1" fill="#e73857" fill-opacity="1"></use></g><g><use xlink:href="#a518cYpyA" opacity="1" fill="#c61f48" fill-opacity="1"></use></g><g><use xlink:href="#f40Ua73R60" opacity="1" fill="#ffffff" fill-opacity="1"></use></g><g><use xlink:href="#cCc2Klks4" opacity="1" fill="#ffffff" fill-opacity="1"></use></g><g><use xlink:href="#a5HVHWfe6y" opacity="1" fill="#ffffff" fill-opacity="1"></use></g><g><use xlink:href="#asNqC6pTA" opacity="1" fill="#ffffff" fill-opacity="1"></use></g><g><use xlink:href="#f39xNw5HzD" opacity="1" fill="#424242" fill-opacity="1"></use></g><g><use xlink:href="#g6hpkoYwVu" opacity="1" fill="#ffffff" fill-opacity="1"></use></g><g><use xlink:href="#duMdaIWFl" opacity="1" fill="#424242" fill-opacity="1"></use></g><g><use xlink:href="#e14N2vIYhQ" opacity="1" fill="#ffffff" fill-opacity="1"></use></g><g><use xlink:href="#k7XaQgAYjP" opacity="1" fill="#a82328" fill-opacity="1"></use></g><g><use xlink:href="#afszpCZAq" opacity="1" fill="#ee747f" fill-opacity="1"></use></g><g><use xlink:href="#bpUhnEvdG" opacity="1" fill="#e73857" fill-opacity="1"></use></g><g><use xlink:href="#b2HUUwF0Af" opacity="1" fill="#e73857" fill-opacity="1"></use></g><g><use xlink:href="#bk6VkBj1L" opacity="1" fill="#e73857" fill-opacity="1"></use></g><g><use xlink:href="#d1vuz9t1k" opacity="1" fill="#e73857" fill-opacity="1"></use></g><g><use xlink:href="#b8l5WXu0v" opacity="1" fill="#e73857" fill-opacity="1"></use></g><g><use xlink:href="#j2oHiYgosj" opacity="1" fill="#e73857" fill-opacity="1"></use></g><g><use xlink:href="#a1HMZZISZR" opacity="1" fill="#e73857" fill-opacity="1"></use></g><g><use xlink:href="#i1ebZUJZQr" opacity="1" fill="#e73857" fill-opacity="1"></use></g><g><use xlink:href="#a1CpwujUhV" opacity="1" fill="#e73857" fill-opacity="1"></use></g><g><use xlink:href="#aaeXX6FjL" opacity="1" fill="#e73857" fill-opacity="1"></use></g><g><use xlink:href="#c22vQFjmD3" opacity="1" fill="#e73857" fill-opacity="1"></use></g><g><use xlink:href="#a12EOe59lq" opacity="1" fill="#e73857" fill-opacity="1"></use></g><g><use xlink:href="#b4LDT4FUT" opacity="1" fill="#e73857" fill-opacity="1"></use></g><g><use xlink:href="#e1UnLEVH7i" opacity="1" fill="#e73857" fill-opacity="1"></use></g><g><use xlink:href="#buUE5FjCF" opacity="1" fill="#e73857" fill-opacity="1"></use></g><g><use xlink:href="#b2YwJsCvk" opacity="1" fill="#e73857" fill-opacity="1"></use></g></g></g></svg>